<svg version="1.1" title="audio" id="Audio" xmlns="http://www.w3.org/2000/svg" xmlns:xlink="http://www.w3.org/1999/xlink" viewBox="0 0 40 40" xml:space="preserve"><path class="audio__main" stroke-width="0" d="M21.8 1.1L21.8 1.1c-1-1-2.5-1-3.4 0L9.5 10H2c-1.1 0-2 0.9-2 2v16c0 1.1 0.9 2 2 2h7.4l9 9c0.9 0.9 2.4 0.9 3.4 0l0 0c0.1-0.1 0.2-1.6 0.2-1.8V4.3C22 4.1 21.9 1.3 21.8 1.1z"/><path class="audio__waves" fill="none" stroke-linecap="round" stroke-miterlimit="10" d="M31,36 c9.3-9.1,9.3-23.9,0-33 M27,32.5c8-7.2,8-18.8,0-26 M24,28c5.3-4.7,5.3-12.3,0-17"/></svg>