<svg version="1.1" id="battery" xmlns="http://www.w3.org/2000/svg" xmlns:xlink="http://www.w3.org/1999/xlink" viewBox="0 0 40 22" xml:space="preserve"><path class="battey__outline" d="M38 4h-1V2c0-1.1-0.8-2-1.8-2H1.8C0.8 0 0 0.9 0 2v18c0 1.1 0.8 2 1.8 2h33.3c1 0 1.8-0.9 1.8-2v-2h1c1.1 0 2-0.9 2-2V6C40 4.9 39.1 4 38 4zM35 18c0 1.1-0.9 2-2 2H4c-1.1 0-2-0.9-2-2V4c0-1.1 0.9-2 2-2h29c1.1 0 2 0.9 2 2V18z"></path><path class="battery__charge" d="M34 17c0 1.1-0.9 2-2 2H5c-1.1 0-2-0.9-2-2V5c0-1.1 0.9-2 2-2h27c1.1 0 2 0.9 2 2V17z"></path></svg>