<svg version="1.1" id="computer" title="computer" xmlns="http://www.w3.org/2000/svg" xmlns:xlink="http://www.w3.org/1999/xlink" viewBox="0 0 100 100" xml:space="preserve"><path class="computer__base" d="M89.6 89.07c-0.24-0.34-0.62-0.54-1.03-0.54H12.7c-0.37 0-0.73 0.16-0.97 0.45l-7.58 9c-0.32 0.38-0.39 0.9-0.18 1.35 0.21 0.44 0.65 0.73 1.15 0.73h89.77c0.47 0 0.9-0.26 1.12-0.68 0.22-0.42 0.18-0.92-0.09-1.31L89.6 89.07zM33.33 84.58c-1.22 1.22 0.69 1.91 0.69 1.91h15.75 0.06 0.06 15.75c0 0 1.91-0.69 0.69-1.91 -1.22-1.22-4.52-2.08-4.86-7.3 -0.03-0.41-0.01-2.04-0.01-4.17H38.2c0.01 2.13 0.02 3.76-0.01 4.17C37.85 82.49 34.55 83.36 33.33 84.58zM96 0H4C1.8 0 0 1.8 0 4v63.92c0 2.2 1.8 4 4 4h92c2.2 0 4-1.8 4-4V4C100 1.8 98.2 0 96 0z"/><g class="computer__details"><g class="computer__details__small" display="inline"><path class="computer__keys" fill="#FFFFFF" d="M87.2 90.13l0.72 1.24h-2.99l-0.62-1.24H87.2zM55.08 90.13h3.06l0.05 1.24h-3.16L55.08 90.13zM54.96 93.41h3.32l0.06 1.24h-3.42L54.96 93.41zM49.25 90.13h3.05l-0.08 1.24h-3.15L49.25 90.13zM48.78 93.41h3.31l-0.08 1.24H48.6L48.78 93.41zM43.43 90.13h3.03l-0.21 1.24h-3.13L43.43 90.13zM42.61 93.41h3.29l-0.21 1.24h-3.39L42.61 93.41zM37.62 90.13h3l-0.35 1.24h-3.1L37.62 90.13zM36.44 93.41h3.26l-0.35 1.24h-3.36L36.44 93.41zM31.81 90.13h2.95l-0.48 1.24h-3.05L31.81 90.13zM30.28 93.41h3.21l-0.48 1.24H29.7L30.28 93.41zM26.01 90.13h2.89l-0.61 1.24H25.3L26.01 90.13zM20.22 90.13h2.82l-0.75 1.24h-2.92L20.22 90.13zM14.42 90.13h2.74l-0.88 1.24h-2.84L14.42 90.13zM11.7 97.84H8.35l0.98-1.24h3.26L11.7 97.84zM13.96 94.65h-3.11l0.98-1.24h3.01L13.96 94.65zM18.4 97.84h-3.44l0.85-1.24h3.34L18.4 97.84zM20.32 94.65h-3.18l0.84-1.24h3.08L20.32 94.65zM25.09 97.84h-3.5l0.71-1.24h3.41L25.09 97.84zM26.67 94.65h-3.25l0.71-1.24h3.15L26.67 94.65zM28.22 97.84l0.58-1.24h29.62l0.05 1.24H28.22zM60.91 90.13h3.05l0.19 1.24H61L60.91 90.13zM61.14 93.41h6.19l-0.58-3.29h3.03l1.19 4.53h-9.74L61.14 93.41zM61.45 97.84l-0.09-1.24h3.57l0.19 1.24H61.45zM68.12 97.84L67.9 96.6h3.54l0.32 1.24H68.12zM72.6 90.13h3l0.45 1.24h-3.1L72.6 90.13zM73.54 93.41h3.26l0.45 1.24h-3.35L73.54 93.41zM74.8 97.84l-0.35-1.24h3.51l0.45 1.24H74.8zM78.46 90.13h2.94l0.59 1.24h-3.04L78.46 90.13zM79.74 93.41h3.21l0.59 1.24h-3.31L79.74 93.41zM81.48 97.84l-0.49-1.24h3.46l0.58 1.24H81.48zM85.96 93.41h3.15l0.72 1.24h-3.25L85.96 93.41zM88.17 97.84l-0.62-1.24h3.4l0.72 1.24H88.17z"/><circle class="computer__button" fill="#FFFFFF" cx="50.62" cy="66.25" r="3.04"/></g><rect class="computer__screen" x="5.54" y="5.54" display="inline" fill="#FFFFFF" width="89.11" height="50.72"/></g></svg>